HIERARCHY
ROOT Hips
{
  OFFSET -73.8564 90.1636 4.32793
  CHANNELS 6 Xposition Yposition Zposition Zrotation Xrotation Yrotation
  JOINT ToSpine
  {
    OFFSET -2.69724 7.43032 -0.144315
    CHANNELS 3 Zrotation Xrotation Yrotation
    JOINT Spine
    {
      OFFSET -0.0310711 10.7595 1.96963
      CHANNELS 3 Zrotation Xrotation Yrotation
      JOINT Spine1
      {
        OFFSET 13.1342 3.43533 0.764692
        CHANNELS 3 Zrotation Xrotation Yrotation
        JOINT Neck
        {
          OFFSET 29.8703 7.82586 -0.130764
          CHANNELS 3 Zrotation Xrotation Yrotation
          JOINT Head
          {
            OFFSET 9.52751 0.295786 -0.907742
            CHANNELS 3 Zrotation Xrotation Yrotation
            End Site
            {
              OFFSET 16.4037 0.713936 2.7358
            }
          }
        }
        JOINT LeftShoulder
        {
          OFFSET 27.5574 4.95586 2.47156
          CHANNELS 3 Zrotation Xrotation Yrotation
          JOINT LeftArm
          {
            OFFSET 1.20734 -0.998971 20.1238
            CHANNELS 3 Zrotation Xrotation Yrotation
            JOINT LeftForeArm
            {
              OFFSET 26.8049 -0.0536703 -0.155908
              CHANNELS 3 Zrotation Xrotation Yrotation
              JOINT LeftHand
              {
                OFFSET 26.6817 0 0.320147
                CHANNELS 3 Zrotation Xrotation Yrotation
                End Site
                {
                  OFFSET 18.6119 0 0.382219
                }
              }
            }
          }
        }
        JOINT RightShoulder
        {
          OFFSET 27.5927 4.71444 -2.65209
          CHANNELS 3 Zrotation Xrotation Yrotation
          JOINT RightArm
          {
            OFFSET 2.83739 -1.17114 -18.7564
            CHANNELS 3 Zrotation Xrotation Yrotation
            JOINT RightForeArm
            {
              OFFSET 28.839 -0.0548439 1.22491
              CHANNELS 3 Zrotation Xrotation Yrotation
              JOINT RightHand
              {
                OFFSET 26.5114 0 -0.101894
                CHANNELS 3 Zrotation Xrotation Yrotation
                End Site
                {
                  OFFSET 18.2168 0 0
                }
              }
            }
          }
        }
      }
    }
  }
  JOINT LeftUpLeg
  {
    OFFSET -4.76168 -1.9167 -10.2353
    CHANNELS 3 Zrotation Xrotation Yrotation
    JOINT LeftLeg
    {
      OFFSET 2.55951 -42.0585 -8.02213
      CHANNELS 3 Zrotation Xrotation Yrotation
      JOINT LeftFoot
      {
        OFFSET 3.16357 -42.5282 -3.95426
        CHANNELS 3 Zrotation Xrotation Yrotation
        JOINT LeftToeBase
        {
          OFFSET 0.346054 -6.02161 12.8035
          CHANNELS 3 Zrotation Xrotation Yrotation
          End Site
          {
            OFFSET 0.134235 -1.35082 5.13018
          }
        }
      }
    }
  }
  JOINT RightUpLeg
  {
    OFFSET -4.94151 -1.41743 10.6446
    CHANNELS 3 Zrotation Xrotation Yrotation
    JOINT RightLeg
    {
      OFFSET -2.56294 -42.0364 -7.94377
      CHANNELS 3 Zrotation Xrotation Yrotation
      JOINT RightFoot
      {
        OFFSET -3.0952 -42.555 -4.02241
        CHANNELS 3 Zrotation Xrotation Yrotation
        JOINT RightToeBase
        {
          OFFSET -0.0828122 -6.13587 12.8035
          CHANNELS 3 Zrotation Xrotation Yrotation
          End Site
          {
            OFFSET -0.131328 -1.35082 5.13018
          }
        }
      }
    }
  }
}
MOTION
Frames:	10
Frame Time:	0.0333333
-1.3765 85.4994 -10.0533 -48.319 -41.6342 -163.158 -70.1915 0 88.8779 112.449 64.3369 -33.391 -7.44826 15.9475 3.88008 -149.033 35.0806 168.513 -160.52 75.2818 -159.261 0.181625 -14.9895 -28.2695 -80.7547 37.4252 -81.0734 25.1253 -2.20301 -93.9719 0.420957 0.000575531 0.35866 -2.30956 7.32152 45.8028 -55.7411 -48.0753 57.8765 8.01841 -11.2663 35.95 0.58676 0.00033167 0.0646654 -63.5493 14.5049 94.354 -1.94683 32.2694 -7.45776 -18.411 14.2471 5.71491 5.12262 -12.2331 8.74279 6.19821 -18.5391 80.2515 11.3608 74.5666 -8.10448 -10.5668 0.747152 1.52707 0.32664 -29.4887 -32.1288 
-8.84439 86.901 -7.63739 -46.7034 -38.8916 -165.217 -70.1915 0 88.8779 105.048 66.1437 -24.2966 -4.61482 16.099 4.3692 -153.444 34.73 173.392 -157.979 74.6021 -161.306 0.0786965 -15.2837 -29.3224 -79.5808 41.1268 -76.5635 24.6941 -0.643581 -90.7021 0.420957 0.000575531 0.35866 -2.09769 6.76576 45.3639 -60.4164 -45.3597 58.0578 8.79476 -12.3886 35.9321 0.58676 0.00033167 0.0646654 -63.0261 9.51489 88.2358 -2.20279 35.1591 -6.47425 -8.80242 15.3112 3.39273 0.233849 -3.85955 9.47624 3.30306 -17.9463 78.7302 8.451 73.5853 -11.4499 -6.6306 -5.01598 1.10671 1.98165 -20.8859 -26.0108 
-15.4687 87.0643 -5.43373 -47.0223 -34.2015 -168.468 -70.1915 0 88.8779 105.711 67.2036 -22.9904 -3.71938 16.8858 5.3567 -157.766 33.6906 177.601 -152.464 73.3524 -167.172 0.0535935 -15.1077 -30.6085 -79.2445 44.6045 -73.0157 26.1788 2.94498 -83.3738 0.420957 0.000575531 0.35866 -2.06907 6.21039 47.6491 -61.4315 -39.1852 61.1194 9.03684 -12.1562 37.1818 0.58676 0.00033167 0.0646654 -60.3999 6.18651 87.7566 -2.91242 45.4029 -4.9299 -7.02582 7.79133 1.89573 0.897677 -5.10019 9.74189 -1.05718 -14.0028 77.8007 7.32119 72.6211 -12.0781 -9.10747 -8.92414 1.31495 2.22727 -21.471 -15.3484 
-22.6454 86.9061 -3.74268 -46.8268 -27.9765 -170.22 -70.1915 0 88.8779 110.88 68.2975 -25.0051 -3.93342 18.268 5.85081 -161.148 32.415 -179.373 -151.014 72.1815 -168.219 0.11478 -14.5301 -31.9916 -78.6085 46.7701 -69.9964 23.7958 6.45032 -75.0914 0.420957 0.000575531 0.35866 -2.04793 5.82038 49.4527 -63.0367 -32.538 66.2876 9.71853 -12.4447 38.576 0.58676 0.00033167 0.0646654 -54.5759 5.45548 89.123 -5.39001 58.9287 -4.73866 -7.78429 4.94954 1.63682 0.963739 -5.16401 9.55106 -5.20273 -6.94672 78.4242 6.70759 71.675 -11.9996 -3.18094 -20.5399 1.61122 2.09354 -7.46268 -12.271 
-29.8536 86.7061 -2.47856 -48.1774 -22.809 -173.332 -70.1915 0 88.8779 122.924 67.6321 -36.2571 -5.02653 19.9447 5.57169 -165.954 30.9278 -178.706 -147.526 70.7186 -171.577 0.0748615 -14.5271 -32.9908 -74.3602 49.3993 -70.5324 16.2448 8.2955 -63.1357 0.420957 0.000575531 0.35866 -2.0748 5.75223 50.2784 -66.6843 -27.0953 73.7414 12.223 -14.327 41.2418 0.58676 0.00033167 0.0646654 -46.1757 4.90171 90.9425 -15.9343 75.7943 3.50095 -7.57331 5.73424 1.71189 2.56808 -7.80859 8.85557 -10.7495 -1.07848 80.417 7.57968 70.8389 -8.13029 -8.63731 -18.8549 1.31798 2.15292 -19.7575 -22.5961 
-37.1549 86.4593 -1.31925 -49.1477 -17.5499 -176.252 -70.1915 0 88.8779 130.975 66.9603 -43.1216 -4.84385 22.1824 2.80756 -169.642 29.5654 -178.949 -147.338 69.4481 -172.64 0.0182469 -14.6799 -33.5187 -70.7834 52.4505 -69.561 7.89232 6.04555 -52.485 0.420957 0.000575531 0.35866 -2.25515 6.33861 49.7497 -71.1562 -25.3153 81.2647 15.7205 -13.7382 49.8323 0.58676 0.00033167 0.0646654 -34.2092 6.22313 93.4525 -122.54 84.2689 111.098 -6.22956 4.83894 1.3525 1.1858 -6.22957 12.2386 -17.8695 3.25756 82.2652 7.09559 67.9256 -3.38983 -10.8438 -22.763 1.16677 2.07462 -19.695 -29.1669 
-44.3853 86.2554 -0.345713 -47.6743 -13.5983 -177.751 -70.1915 0 88.8779 133.415 68.1547 -45.4226 -5.96711 23.9976 2.48147 -171.285 28.7927 -178.238 -147.807 68.759 -173.748 0.105452 -14.4403 -32.7133 -59.4307 57.1246 -72.5636 5.35217 4.9501 -47.2688 0.420957 0.000575531 0.35866 -2.14659 6.94909 45.2255 -77.2584 -30.8164 86.2949 25.7146 -12.6213 65.4816 0.58676 0.00033167 0.0646654 -17.2934 7.80474 93.5987 -160.022 74.3675 152.682 -3.65131 5.32314 0.962098 1.75788 -5.92642 7.0628 -24.3681 5.07191 83.181 5.07432 62.5246 -1.869 -3.52227 -33.5488 2.27688 3.08716 -5.93532 -21.4664 
-52.5756 86.8105 1.25936 -46.6154 -10.288 177.023 -70.1915 0 88.8779 131.198 70.962 -47.2939 -6.56293 26.3553 2.00629 -169.723 29.2459 179.839 -143.969 68.6326 -176.042 0.402308 -13.4062 -30.4616 -49.446 62.2024 -71.9646 6.15819 4.83448 -51.8293 0.420957 0.000575531 0.35866 -1.8319 6.6807 41.9068 -77.0656 -35.5918 93.2915 32.213 -5.89308 80.5646 0.58676 0.00033167 0.0646654 -3.47335 7.61081 97.2788 -162.069 73.1593 157.759 -2.05041 4.77435 0.629433 0.313438 -3.13892 6.68842 -31.3711 3.05975 87.4047 4.29147 57.3619 1.32536 -4.09234 -32.2017 2.1088 2.52344 -10.6559 -17.7676 
-62.6857 88.3456 2.83588 -47.7816 -7.37655 174.065 -70.1915 0 88.8779 132.636 73.0496 -50.8405 -6.69753 28.4827 2.21366 -168.112 29.3338 178.939 -145.937 68.7138 -175.351 0.541871 -13.0196 -28.0847 -42.3858 67.7096 -71.1426 6.2744 4.09814 -56.7592 0.420957 0.000575531 0.35866 -1.6377 6.96486 37.9845 -76.2486 -39.3533 98.3828 36.1648 1.20738 91.4264 0.58676 0.00033167 0.0646654 3.80494 7.21704 97.619 -151.19 80.064 145.282 -2.56002 4.49227 0.688263 1.14434 -5.42455 9.3409 -43.0614 1.67381 90.719 3.08452 47.9354 4.2388 -5.10616 -20.4515 1.50621 2.40959 -23.1917 -10.8552 
-73.8564 90.1636 4.32793 -49.5268 -5.96055 173.534 -70.1915 0 88.8779 135.405 74.0924 -53.3929 -7.49677 29.7553 2.01012 -165.672 30.0432 177.24 -146.325 69.1903 -176.361 0.518028 -13.5697 -25.693 -32.4319 71.5196 -75.7498 6.46909 3.64398 -60.4656 0.420957 0.000575531 0.35866 -1.60143 7.27128 36.4185 -75.1755 -40.8002 99.6445 38.5708 6.87894 98.2903 0.58676 0.00033167 0.0646654 6.18284 5.60422 96.56 -38.3809 83.4042 29.9051 -4.23292 7.11906 1.26796 2.40476 -7.76255 9.95723 -54.856 0.283877 91.2517 2.17897 38.0654 4.98625 -3.96242 -0.250105 0.670949 5.0156 -33.5912 4.43319 
